<svg id="Capa_1" enable-background="new 0 0 512 512" height="512" viewBox="0 0 512 512" width="512" xmlns="http://www.w3.org/2000/svg"><g><path d="m512 256c0 141.385-114.615 256-256 256s-256-114.615-256-256 114.615-256 256-256 256 114.615 256 256z" fill="#55a4f9"/><path d="m439 256c0 101.068-81.932 183-183 183s-183-81.932-183-183 81.932-183 183-183 183 81.932 183 183z" fill="#76b6fa"/><path d="m178 412c0 11.046-8.954 20-20 20s-20-8.954-20-20 8.954-20 20-20 20 8.954 20 20zm-93 15.5c0 6.904-5.596 12.5-12.5 12.5s-12.5-5.596-12.5-12.5 5.596-12.5 12.5-12.5 12.5 5.596 12.5 12.5z" fill="#51489a"/><path d="m472.773 104.16-210 140c-.555.37-1.773 3.691-1.773 3.691v222.149c0 2.761-2.238 5-5 5s-5-2.239-5-5v-231.085s-2.194-4.019-2.78-4.242l-210-80c-2.58-.983-3.875-3.872-2.893-6.452.984-2.581 3.872-3.876 6.453-2.893l210 80c.447.17 9.22 7.997 9.22 7.997l206.227-137.485c2.298-1.532 5.401-.911 6.934 1.387 1.531 2.297.91 5.401-1.388 6.933z" fill="#232e7a"/><path d="m432.5 314.5c0 35.622-28.878 64.5-64.5 64.5s-64.5-28.878-64.5-64.5 28.878-64.5 64.5-64.5 64.5 28.878 64.5 64.5zm-113.165-177.796c-6.74 34.979-40.56 57.871-75.539 51.13s-57.871-40.56-51.13-75.539 40.56-57.871 75.539-51.13 57.87 40.561 51.13 75.539z" fill="#6a61b4"/><path d="m423.555 347.29c-11.227 18.981-31.905 31.71-55.555 31.71-35.622 0-64.5-28.878-64.5-64.5 0-23.65 12.729-44.328 31.71-55.555-5.683 9.608-8.945 20.818-8.945 32.79 0 35.622 28.878 64.5 64.5 64.5 11.972 0 23.182-3.261 32.79-8.945zm-119.208-180.08c-14.616 16.514-37.328 25.1-60.551 20.625-34.979-6.74-57.871-40.56-51.13-75.539 4.475-23.223 20.887-41.118 41.649-48.551-7.399 8.359-12.723 18.75-14.988 30.505-6.74 34.979 16.152 68.799 51.13 75.539 11.755 2.265 23.38 1.183 33.89-2.579z" fill="#51489a"/><path d="m178 412c0 2.391-.42 4.685-1.19 6.81-2.126.77-4.419 1.19-6.81 1.19-11.046 0-20-8.954-20-20 0-2.391.42-4.685 1.19-6.81 2.126-.77 4.419-1.19 6.81-1.19 11.046 0 20 8.954 20 20z" fill="#6a61b4"/><path d="m341 236c0 46.944-38.056 85-85 85s-85-38.056-85-85 38.056-85 85-85 85 38.056 85 85zm-244.479-79.261c0 23.892-19.368 43.261-43.261 43.261s-43.26-19.368-43.26-43.261 19.368-43.261 43.261-43.261 43.26 19.369 43.26 43.261zm200.479 294.261c0 22.644-18.356 41-41 41s-41-18.356-41-41 18.356-41 41-41 41 18.356 41 41zm203-341.25c0 27.476-22.274 49.75-49.75 49.75s-49.75-22.274-49.75-49.75 22.274-49.75 49.75-49.75 49.75 22.274 49.75 49.75z" fill="#fb5858"/><path d="m436.314 202.101c0 11.046-8.954 20-20 20s-20-8.954-20-20 8.954-20 20-20 20 8.954 20 20zm-300-110c0 11.046-8.954 20-20 20s-20-8.954-20-20 8.954-20 20-20 20 8.954 20 20zm350 152.5c0 6.904-5.596 12.5-12.5 12.5s-12.5-5.596-12.5-12.5 5.596-12.5 12.5-12.5 12.5 5.596 12.5 12.5zm-157.102 34.611c-14.795 25.013-42.045 41.788-73.212 41.788-46.944 0-85-38.056-85-85 0-31.167 16.775-58.417 41.788-73.212-7.49 12.662-11.788 27.435-11.788 43.212 0 46.944 38.056 85 85 85 15.777 0 30.55-4.298 43.212-11.788zm-238.69-100.48c-7.53 12.731-21.399 21.268-37.261 21.268-23.893 0-43.261-19.368-43.261-43.261 0-15.863 8.537-29.731 21.268-37.261-3.812 6.444-6 13.963-6 21.993 0 23.892 19.368 43.261 43.261 43.261 8.03 0 15.549-2.188 21.993-6zm200.792 293.111c-7.137 12.066-20.28 20.157-35.314 20.157-22.644 0-41-18.356-41-41 0-15.034 8.091-28.177 20.157-35.314-3.613 6.108-5.686 13.233-5.686 20.843 0 22.644 18.356 41 41 41 7.61 0 14.735-2.073 20.843-5.686zm201.786-336.801c-8.66 14.64-24.608 24.458-42.85 24.458-27.476 0-49.75-22.274-49.75-49.75 0-18.242 9.818-34.191 24.458-42.851-4.384 7.411-6.899 16.058-6.899 25.292 0 27.476 22.274 49.75 49.75 49.75 9.234 0 17.881-2.516 25.291-6.899z" fill="#f44545"/><path d="m436.314 202.101c0 2.391-.42 4.685-1.19 6.81-2.126.77-4.419 1.19-6.81 1.19-11.046 0-20-8.954-20-20 0-2.391.42-4.685 1.19-6.81 2.126-.77 4.419-1.19 6.81-1.19 11.046 0 20 8.954 20 20zm-320-130c-2.391 0-4.685.42-6.81 1.19-.77 2.126-1.19 4.419-1.19 6.81 0 11.046 8.954 20 20 20 2.391 0 4.685-.42 6.81-1.19.77-2.126 1.19-4.419 1.19-6.81 0-11.046-8.954-20-20-20z" fill="#fb5858"/><path d="m314.295 226.981c-6.338 6.338-21.764 1.187-34.456-11.506-12.692-12.692-17.843-28.119-11.506-34.456 6.338-6.338 21.764-1.187 34.456 11.505s17.844 28.119 11.506 34.457zm-231.812-71.813c-3.672 3.672-12.61.687-19.964-6.666-7.354-7.354-10.338-16.292-6.666-19.964s12.61-.687 19.964 6.666c7.353 7.354 10.338 16.292 6.666 19.964zm200.717 297.147c-3.672 3.672-12.61.687-19.964-6.666-7.354-7.354-10.338-16.292-6.666-19.964s12.61-.687 19.964 6.666 10.338 16.292 6.666 19.964zm201.543-346.899c-3.672 3.672-12.61.687-19.964-6.666-7.354-7.354-10.338-16.292-6.666-19.964s12.61-.687 19.964 6.666c7.353 7.354 10.338 16.292 6.666 19.964z" fill="#fc7979"/><path d="m208.5 314.5c0 35.622-28.878 64.5-64.5 64.5s-64.5-28.878-64.5-64.5 28.878-64.5 64.5-64.5 64.5 28.878 64.5 64.5z" fill="#6a61b4"/><path d="m199.555 347.29c-11.227 18.981-31.905 31.71-55.555 31.71-35.622 0-64.5-28.878-64.5-64.5 0-23.65 12.729-44.328 31.71-55.555-5.683 9.608-8.945 20.818-8.945 32.79 0 35.622 28.878 64.5 64.5 64.5 11.972 0 23.182-3.261 32.79-8.945z" fill="#51489a"/><path d="m184.315 303.315c-3.672 3.672-12.61.687-19.964-6.666-7.354-7.354-10.338-16.292-6.666-19.964s12.61-.687 19.964 6.666 10.338 16.292 6.666 19.964zm223.25 0c-3.672 3.672-12.61.687-19.964-6.666-7.354-7.354-10.338-16.292-6.666-19.964s12.61-.687 19.964 6.666 10.338 16.292 6.666 19.964zm-118.364-197.899c-3.672 3.672-12.61.687-19.964-6.666-7.354-7.354-10.338-16.292-6.666-19.964s12.61-.687 19.964 6.666 10.338 16.292 6.666 19.964z" fill="#8078bf"/></g></svg>