<svg id="Layer_5" enable-background="new 0 0 64 64" height="512" viewBox="0 0 64 64" width="512" xmlns="http://www.w3.org/2000/svg" xmlns:xlink="http://www.w3.org/1999/xlink"><linearGradient id="SVGID_1_" gradientUnits="userSpaceOnUse" x1="32" x2="32" y1="63" y2="1"><stop offset="0" stop-color="#9f2fff"/><stop offset="1" stop-color="#0bb1d3"/></linearGradient><path d="m35 45h2v2h-2zm-8 2h2v-2h-2zm4 0h2v-2h-2zm11-18c0 5.514-4.486 10-10 10s-10-4.486-10-10 4.486-10 10-10 10 4.486 10 10zm-8.538 5h-2.924c.479 1.977 1.149 3 1.462 3s.983-1.023 1.462-3zm.357-2c.077-.614.134-1.277.161-2h-3.962c.027.723.085 1.386.161 2zm-3.281-8h2.924c-.479-1.977-1.149-3-1.462-3s-.983 1.023-1.462 3zm-.357 2c-.077.614-.134 1.277-.161 2h3.962c-.027-.723-.085-1.386-.161-2zm-2.013 0h-3.579c-.256.631-.432 1.302-.52 2h3.95c.024-.673.075-1.343.149-2zm-3.579 6h3.579c-.074-.657-.125-1.327-.149-2h-3.95c.088.698.264 1.369.52 2zm11.243 0h3.579c.256-.631.432-1.302.52-2h-3.95c-.024.673-.075 1.343-.149 2zm4.099-4c-.088-.698-.263-1.369-.52-2h-3.579c.074.657.125 1.327.149 2zm-5.167-6.498c.312.727.56 1.579.752 2.498h2.719c-.901-1.121-2.098-1.99-3.471-2.498zm-8.999 2.498h2.719c.192-.919.44-1.771.752-2.498-1.373.508-2.57 1.377-3.471 2.498zm3.471 12.498c-.312-.727-.56-1.579-.752-2.498h-2.719c.901 1.121 2.098 1.99 3.471 2.498zm8.999-2.498h-2.719c-.192.919-.44 1.771-.752 2.498 1.373-.508 2.57-1.377 3.471-2.498zm22.14-24.481 2.625.717v5.527l-2.625.718c-.086.229-.181.457-.286.684l1.35 2.367-2.439 2.439v11.029h1c1.654 0 3 1.346 3 3v8c0 1.654-1.346 3-3 3h-1.101c-.465 2.279-2.484 4-4.899 4h-11.719l1.5 6h3.219c1.654 0 3 1.346 3 3v3h-36v-3c0-1.654 1.346-3 3-3h3.219l1.5-6h-6.82c-.465 2.279-2.484 4-4.899 4-2.757 0-5-2.243-5-5v-1.649l-2.028-2.534c-1.272-1.591-1.972-3.588-1.972-5.624v-.193c0-3.114 1.59-5.862 4-7.478v-11.522h-4v-20h24v10h14v-.764l2.625-.718c.086-.229.181-.457.286-.684l-1.35-2.367 3.908-3.907 2.365 1.351c.226-.104.455-.2.685-.286l.718-2.625h5.526l.718 2.625c.23.086.459.182.685.286l2.365-1.351 3.908 3.907-1.35 2.367c.105.228.2.456.286.685zm-7.375 15.481h-4.763l-.718-2.625c-.23-.086-.459-.182-.685-.286l-2.365 1.351-3.908-3.907 1.35-2.367c-.025-.055-.045-.11-.069-.165h-16.842v4h-14v10.059c4.493.499 8 4.316 8 8.941v.193c0 .27-.014.539-.038.807h24.038v-5c0-1.654 1.346-3 3-3h1v-1.586c0-1.332 1.083-2.415 2.414-2.415.635 0 1.257.258 1.707.706l1.879 1.88zm-30-20-6 8c-.11.146-.228.284-.352.416l6.352 4.62zm-1-2h-18.001l6.6 8.801c.564.751 1.462 1.199 2.401 1.199s1.837-.448 2.4-1.2zm-19 2v13.037l6.352-4.62c-.124-.132-.242-.27-.352-.416zm2.075 14h15.849l-6.029-4.384c-.596.245-1.238.384-1.895.384s-1.3-.139-1.896-.384zm19.925-6v2h14v-2zm-18 18.525c.638-.227 1.306-.389 2-.466v-10.059h-2zm-.52 15.475h2.52v-4.184c-1.161-.414-2-1.514-2-2.816 0-1.654 1.346-3 3-3s3 1.346 3 3c0 1.302-.839 2.402-2 2.816v4.184h2.52l1.947-2.434c.988-1.236 1.533-2.79 1.533-4.373v-.193c0-3.859-3.14-7-7-7s-7 3.141-7 7v.193c0 1.583.545 3.137 1.534 4.373zm3.52-6c.551 0 1-.448 1-1s-.449-1-1-1-1 .448-1 1 .449 1 1 1zm3 9v-1h-6v1c0 1.654 1.346 3 3 3s3-1.346 3-3zm34 9h-30c-.551 0-1 .448-1 1v1h32v-1c0-.552-.449-1-1-1zm-6.781-8h-16.438l-1.5 6h19.438zm16.597-4h-10.816c-1.654 0-3-1.346-3-3v-1h-24.457c-.334 1.016-.842 1.974-1.515 2.816l-2.028 2.535v.649h39c1.302 0 2.402-.839 2.816-2zm3.184-12h-6.414l-3.879-3.879c-.24-.238-.707-.044-.707.293v3.586h-3c-.551 0-1 .448-1 1v8c0 .552.449 1 1 1h14c.551 0 1-.448 1-1v-8c0-.552-.449-1-1-1zm-3-2v-9.864l-1.834-1.047c-.055.025-.111.045-.166.069v10.842zm4-21.236-2.193-.601-.162-.524c-.142-.459-.334-.921-.572-1.371l-.256-.485 1.129-1.979-1.75-1.749-1.979 1.13-.487-.258c-.445-.236-.906-.429-1.369-.572l-.525-.161-.599-2.194h-2.474l-.6 2.193-.525.161c-.463.144-.924.336-1.369.572l-.486.258-1.979-1.13-1.75 1.749 1.129 1.979-.256.485c-.238.45-.43.912-.572 1.371l-.162.524-2.193.602v2.473l2.193.601.162.524c.142.459.334.921.572 1.371l.256.485-1.129 1.979 1.75 1.749 1.979-1.13.486.258c.445.236.906.429 1.369.572l.525.161.6 2.193h2.474l.6-2.193.525-.161c.463-.144.924-.336 1.369-.572l.486-.258 1.979 1.13 1.75-1.749-1.129-1.979.256-.485c.238-.45.43-.912.572-1.371l.162-.524 2.193-.602zm-4 1.236c0 3.309-2.691 6-6 6s-6-2.691-6-6 2.691-6 6-6 6 2.691 6 6zm-2 0c0-2.206-1.794-4-4-4s-4 1.794-4 4 1.794 4 4 4 4-1.794 4-4zm-8 30h8v-2h-8zm10 0h2v-2h-2zm-10-4h12v-2h-12z" fill="url(#SVGID_1_)"/></svg>