<?xml version="1.0" encoding="iso-8859-1"?>
<!-- Generator: Adobe Illustrator 19.0.0, SVG Export Plug-In . SVG Version: 6.00 Build 0)  -->
<svg version="1.1" id="Layer_1" xmlns="http://www.w3.org/2000/svg" xmlns:xlink="http://www.w3.org/1999/xlink" x="0px" y="0px"
	 viewBox="0 0 512 512" style="enable-background:new 0 0 512 512;" xml:space="preserve">
<circle style="fill:#8AD5DD;" cx="256" cy="256" r="256"/>
<polygon style="fill:#FFFFFF;" points="115,68 115,444 353.92,444 353.92,400.92 397,400.92 397,68 "/>
<g>
	<path style="fill:#2D2D2D;" d="M256.088,131.568c-73.296,0-100.952,59.176-100.952,59.176h201.728
		C356.864,190.744,329.376,131.568,256.088,131.568z"/>
	<path style="fill:#2D2D2D;" d="M255.912,249.92c73.296,0,100.952-59.176,100.952-59.176H155.136
		C155.136,190.752,182.624,249.92,255.912,249.92z"/>
</g>
<circle style="fill:#FFFFFF;" cx="256" cy="190.744" r="44.6"/>
<circle style="fill:#DB2B42;" cx="256" cy="190.744" r="37.56"/>
<g>
	<path style="fill:#2D2D2D;" d="M231.264,325.944c-0.24-4.616-0.536-10.16-0.496-14.28h-0.152c-1.128,3.872-2.496,8-4.168,12.56
		l-5.84,16.048h-3.232l-5.352-15.752c-1.568-4.664-2.896-8.936-3.832-12.856h-0.104c-0.096,4.128-0.344,9.664-0.632,14.624
		l-0.88,14.176h-4.08l2.312-33.08h5.448l5.64,16c1.376,4.072,2.496,7.704,3.336,11.144h0.152c0.832-3.336,2.016-6.968,3.488-11.144
		l5.888-16h5.448l2.064,33.08h-4.168L231.264,325.944z"/>
	<path style="fill:#2D2D2D;" d="M247.08,307.392v33.08h-4.272v-33.08L247.08,307.392L247.08,307.392z"/>
	<path style="fill:#2D2D2D;" d="M254.52,307.392h4.272v29.496h14.136v3.584H254.52L254.52,307.392L254.52,307.392z"/>
	<path style="fill:#2D2D2D;" d="M277.664,307.392h4.272v29.496h14.136v3.584h-18.408V307.392z"/>
	<path style="fill:#2D2D2D;" d="M305.08,307.392v33.08h-4.272v-33.08L305.08,307.392L305.08,307.392z"/>
	<path style="fill:#2D2D2D;" d="M340.792,323.584c0,11.392-6.912,17.424-15.36,17.424c-8.736,0-14.864-6.776-14.864-16.784
		c0-10.496,6.528-17.376,15.36-17.376C334.952,306.848,340.792,313.768,340.792,323.584z M315.128,324.12
		c0,7.072,3.832,13.4,10.552,13.4c6.776,0,10.6-6.232,10.6-13.744c0-6.568-3.44-13.448-10.552-13.448
		C318.664,310.336,315.128,316.864,315.128,324.12z"/>
	<path style="fill:#2D2D2D;" d="M346.296,340.464v-33.08h4.664l10.6,16.736c2.456,3.88,4.368,7.368,5.936,10.752l0.096-0.048
		c-0.392-4.424-0.488-8.448-0.488-13.592v-13.84h4.024v33.08h-4.32l-10.496-16.784c-2.304-3.68-4.512-7.464-6.184-11.04
		l-0.152,0.048c0.248,4.168,0.344,8.144,0.344,13.64v14.136h-4.024V340.464z"/>
</g>
<path style="fill:#DB2B42;" d="M162.272,287.392h-0.248l-13.872,7.496l-2.088-8.232l17.44-9.328h9.208v79.824h-10.44V287.392z"/>
<polygon style="fill:#E0E0E0;" points="353.92,444 353.92,400.92 397,400.92 "/>
<g>
</g>
<g>
</g>
<g>
</g>
<g>
</g>
<g>
</g>
<g>
</g>
<g>
</g>
<g>
</g>
<g>
</g>
<g>
</g>
<g>
</g>
<g>
</g>
<g>
</g>
<g>
</g>
<g>
</g>
</svg>
