<svg id="filled_outline" height="512" viewBox="0 0 512 512" width="512" xmlns="http://www.w3.org/2000/svg" data-name="filled outline"><rect fill="#548aff" height="312" rx="16" width="464" x="24" y="48"/><circle cx="416" cy="120" fill="#02c26a" r="32"/><path d="m200 360h112v72h-112z" fill="#c5dafa"/><path d="m200 432h112v32h-112z" fill="#e0edff"/><path d="m112 184a10.60585 10.60585 0 0 0 -10.19776 7.69218l-13.80224 48.30782v32h48v-32l-13.80223-48.30782a10.60583 10.60583 0 0 0 -10.19777-7.69218z" fill="#e0edff"/><path d="m88 240h-8l-24 32h32z" fill="#ef5e3b"/><path d="m136 240h8l24 32h-32z" fill="#ef5e3b"/><path d="m128 288a16 16 0 0 0 -32 0c0 8.83656 16 32 16 32s16-23.16344 16-32z" fill="#ffa100"/><path d="m328 216 24-32 24 32z" fill="#ffc431"/><path d="m416 280h32v24h-32z" fill="#3cde8d"/><circle cx="216" cy="296" fill="#ffc431" r="16"/><path d="m240 80 8 32 32-16-8-16z" fill="#f5714f"/><path d="m472 40h-432a24.0275 24.0275 0 0 0 -24 24v280a24.0275 24.0275 0 0 0 24 24h152v96a7.99977 7.99977 0 0 0 8 8h112a7.99977 7.99977 0 0 0 8-8v-96h152a24.0275 24.0275 0 0 0 24-24v-280a24.0275 24.0275 0 0 0 -24-24zm-168 416h-96v-16h96zm0-32h-96v-56h96zm176-80a8.00917 8.00917 0 0 1 -8 8h-432a8.00917 8.00917 0 0 1 -8-8v-280a8.00917 8.00917 0 0 1 8-8h432a8.00917 8.00917 0 0 1 8 8z"/><path d="m450.34326 82.34326-34.34326 34.34326-10.34326-10.34326-11.31348 11.31348 16 16a7.99945 7.99945 0 0 0 11.31348 0l17.94836-17.94837a23.94633 23.94633 0 1 1 -17.59924-18.95251l3.98828-15.49512a40.00529 40.00529 0 1 0 -17.99414 77.93433v80.80493a8.00917 8.00917 0 0 1 -8 8h-160a8.00917 8.00917 0 0 1 -8-8v-112a24.02687 24.02687 0 0 0 -24-24h-80a24.02687 24.02687 0 0 0 -24 24v49.84082a18.654 18.654 0 0 0 -9.89014 11.65381l-12.14447 42.50537h-1.96539a7.99927 7.99927 0 0 0 -6.3999 3.2002l-24 32a8 8 0 0 0 6.3999 12.7998h33.3761a23.88532 23.88532 0 0 0 -1.3761 8c0 10.22656 12.18066 28.96484 17.41748 36.54688a8.00053 8.00053 0 0 0 13.165 0c5.23686-7.58204 17.41752-26.32032 17.41752-36.54688a23.88532 23.88532 0 0 0 -1.3761-8h33.3761a8 8 0 0 0 6.3999-12.7998l-24-32a7.99927 7.99927 0 0 0 -6.3999-3.2002h-1.96539l-12.14447-42.50537a18.654 18.654 0 0 0 -9.89014-11.65381v-49.84082a8.00917 8.00917 0 0 1 8-8h80a8.00917 8.00917 0 0 1 8 8v112a24.02687 24.02687 0 0 0 24 24h160a24.02687 24.02687 0 0 0 24-24v-80.80493a39.9737 39.9737 0 0 0 28.23175-56.11328l9.425-9.425zm-298.34326 181.65674h-8v-10.66675zm-72-10.66675v10.66675h-8zm40 34.6604c-.06836 2.44824-3.39453 9.41651-8 17.17676-4.60742-7.76318-7.93457-14.73145-8-17.17041a8 8 0 0 1 16-.00635zm8-46.873v22.87935h-32v-22.87939l13.49463-47.23047a2.6055 2.6055 0 0 1 5.01074 0z"/><path d="m320.84473 219.57764a7.99924 7.99924 0 0 0 7.15527 4.42236h48a8 8 0 0 0 6.3999-12.7998l-24-32a7.9995 7.9995 0 0 0 -12.7998 0l-24 32a7.99827 7.99827 0 0 0 -.75537 8.37744zm31.15527-22.24414 8 10.6665h-16z"/><path d="m282.34326 122.34326-16 16a7.99915 7.99915 0 0 0 0 11.31348l10.34326 10.34326-10.34326 10.34326 11.31348 11.31348 16-16a7.99915 7.99915 0 0 0 0-11.31348l-10.34326-10.34326 10.34326-10.34326z"/><path d="m308.68652 160-10.34326 10.34326 11.31348 11.31348 16-16a7.99915 7.99915 0 0 0 0-11.31348l-10.34326-10.34326 10.34326-10.34326-11.31348-11.31348-16 16a7.99915 7.99915 0 0 0 0 11.31348z"/><path d="m448 272h-32a7.99977 7.99977 0 0 0 -8 8v24a7.99977 7.99977 0 0 0 8 8h32a7.99977 7.99977 0 0 0 8-8v-24a7.99977 7.99977 0 0 0 -8-8zm-8 24h-16v-8h16z"/><path d="m272 288h32v16h-32z"/><path d="m352 280h16v24h-16z"/><path d="m216 272a24 24 0 1 0 24 24 24.02687 24.02687 0 0 0 -24-24zm0 32a8 8 0 1 1 8-8 8.00917 8.00917 0 0 1 -8 8z"/><path d="m172 179.029h16v33.941h-16z" transform="matrix(.707 -.707 .707 .707 -85.872 184.686)"/><path d="m167.351 140h25.298v16h-25.298z" transform="matrix(.949 -.316 .316 .949 -37.565 64.516)"/><path d="m240.23877 113.94043a7.99977 7.99977 0 0 0 11.33887 5.21484l32-16a7.99968 7.99968 0 0 0 3.57763-10.73291l-8-16a7.99924 7.99924 0 0 0 -7.15527-4.42236h-32a8.0001 8.0001 0 0 0 -7.76123 9.94043zm26.81689-25.94043 2.21143 4.42236-15.9248 7.96241-3.0962-12.38477z"/><path d="m64 128h16v-16h16v-16h-16v-16h-16v16h-16v16h16z"/><path d="m51.029 172h33.941v16h-33.941z" transform="matrix(.707 -.707 .707 .707 -107.362 100.804)"/><path d="m156 63.351h16v25.298h-16z" transform="matrix(.316 -.949 .949 .316 40.039 207.551)"/></svg>