<?xml version="1.0" encoding="iso-8859-1"?>
<!-- Generator: Adobe Illustrator 19.0.0, SVG Export Plug-In . SVG Version: 6.00 Build 0)  -->
<svg version="1.1" id="Capa_1" xmlns="http://www.w3.org/2000/svg" xmlns:xlink="http://www.w3.org/1999/xlink" x="0px" y="0px"
	 viewBox="0 0 512 512" style="enable-background:new 0 0 512 512;" xml:space="preserve">
<path style="fill:#2B6C7E;" d="M512,255.999c0,141.322-115.408,256.394-256.729,256c-96.991-0.27-181.293-54.48-224.498-134.21
	c34.556-8.332,60.237-39.43,60.237-76.544V91.336c-0.82-0.975-1.647-1.944-2.482-2.906c-7.115-8.205-5.308-18.153,2.971-25.181
	c4.397-3.733,7.858-9.822,12.504-13.255C146.511,18.577,199.085,0,256,0C397.385,0,512,114.615,512,255.999z"/>
<path style="fill:#9FACBA;" d="M296,508.882c-13.034,2.045-26.391,3.118-40,3.118c-27.94,0-54.828-4.492-80-12.767V430h120V508.882z
	"/>
<path style="fill:#8D9CA8;" d="M200,470v35.842c-8.153-1.822-16.16-4.031-24-6.609V430h120v30h-86C204.477,460,200,464.477,200,470z
	"/>
<path style="fill:#B6C4CF;" d="M472,60v58.548V320v73.452c-10.832,16.987-23.619,32.603-38.033,46.548H78.033
	c-19.065-18.444-35.26-39.832-47.883-63.417c35.166-10.288,60.86-42.759,60.86-81.25V91.336c-3.89-4.626-7.944-9.108-12.147-13.445
	c-1.861-1.92-1.78-4.984,0.151-6.833c7.869-7.532,16.215-14.57,24.994-21.058H232h175.992H462C467.523,50,472,54.477,472,60z"/>
<path style="fill:#FFF5F5;" d="M452,91.336V375c0,2.761-2.239,5-5,5H32.002C11.621,343.261,0,300.991,0,256
	c0-73.266,30.785-139.335,80.116-186h351.768C438.988,76.72,445.702,83.847,452,91.336z"/>
<path style="fill:#FFE7BF;" d="M452,91.336V375c0,2.761-2.239,5-5,5h-26c2.761,0,5-2.239,5-5V91.336
	C419.702,83.847,412.988,76.72,405.884,70h26C438.988,76.72,445.702,83.847,452,91.336z"/>
<path style="fill:#9FACBA;" d="M211,410L211,410c0-5.523,4.477-10,10-10h30c5.523,0,10,4.477,10,10l0,0c0,5.523-4.477,10-10,10h-30
	C215.477,420,211,415.523,211,410z"/>
<path style="fill:#FBC56D;" d="M370,350c0,5.523-4.477,10-10,10s-10-4.477-10-10s4.477-10,10-10S370,344.477,370,350z M390,340
	c-5.523,0-10,4.477-10,10s4.477,10,10,10s10-4.477,10-10S395.523,340,390,340z M420,340c-5.523,0-10,4.477-10,10s4.477,10,10,10
	s10-4.477,10-10S425.523,340,420,340z"/>
<path style="fill:#F89696;" d="M310,96.428v257.143c0,3.551-2.527,6.429-5.645,6.429H22.022C7.875,328.22,0,293.031,0,256
	c0-63.344,23.018-121.303,61.13-166h243.225C307.473,90,310,92.878,310,96.428z"/>
<path style="fill:#EA4444;" d="M200,225c0,38.66-31.34,70-70,70s-70-31.34-70-70s31.34-70,70-70S200,186.34,200,225z"/>
<path style="fill:#FFF5F5;" d="M162.727,229.124l-49.798,34.148c-3.318,2.275-7.828-0.1-7.828-4.124v-68.297
	c0-4.023,4.51-6.399,7.828-4.124l49.798,34.148C165.623,222.863,165.623,227.137,162.727,229.124z"/>
<path style="fill:#FFC143;" d="M512,70v30c0,16.569-13.431,30-30,30h-22.193c-4.22,16.445-14.266,30.552-27.807,40
	c-13.541-9.448-23.587-23.555-27.807-40H290c-16.569,0-30-13.431-30-30V70c0-16.569,13.431-30,30-30h192
	C498.569,40,512,53.431,512,70z"/>
<path style="fill:#FFB509;" d="M312,130h-22c-16.569,0-30-13.431-30-30V70c0-16.569,13.431-30,30-30h22c-16.569,0-30,13.431-30,30
	v30C282,116.569,295.431,130,312,130z"/>
<path style="fill:#FF9500;" d="M432,64.5v11c0,1.104-0.896,2-2,2H292c-1.104,0-2-0.896-2-2v-11c0-1.104,0.896-2,2-2h138
	C431.104,62.5,432,63.396,432,64.5z M380,92.5h-88c-1.104,0-2,0.896-2,2v11c0,1.104,0.896,2,2,2h88c1.104,0,2-0.896,2-2v-11
	C382,93.396,381.104,92.5,380,92.5z"/>
<path style="fill:#5EE2C5;" d="M512,220v30c0,16.569-13.431,30-30,30h-96.193c-4.22,16.445-14.266,30.552-27.807,40
	c-13.541-9.448-23.587-23.555-27.807-40H308c-16.569,0-30-13.431-30-30v-30c0-16.569,13.431-30,30-30h174
	C498.569,190,512,203.431,512,220z"/>
<path style="fill:#00D3B4;" d="M330,280h-22c-16.569,0-30-13.431-30-30v-30c0-16.569,13.431-30,30-30h22c-16.569,0-30,13.431-30,30
	v30C300,266.569,313.431,280,330,280z"/>
<path style="fill:#009A8E;" d="M432,214.5v11c0,1.104-0.896,2-2,2H310c-1.104,0-2-0.896-2-2v-11c0-1.104,0.896-2,2-2h120
	C431.104,212.5,432,213.396,432,214.5z M380,242.5h-70c-1.104,0-2,0.896-2,2v11c0,1.104,0.896,2,2,2h70c1.104,0,2-0.896,2-2v-11
	C382,243.396,381.104,242.5,380,242.5z"/>
<g>
</g>
<g>
</g>
<g>
</g>
<g>
</g>
<g>
</g>
<g>
</g>
<g>
</g>
<g>
</g>
<g>
</g>
<g>
</g>
<g>
</g>
<g>
</g>
<g>
</g>
<g>
</g>
<g>
</g>
</svg>
