<?xml version="1.0" encoding="UTF-8"?>
<svg xmlns="http://www.w3.org/2000/svg" viewBox="0 0 64 64" width="512" height="512"><g id="_24_hour" data-name="24 hour"><circle cx="32" cy="32" r="22" style="fill:#57a4ff"/><path d="M54,32A22,22,0,0,1,14.57,45.43,22,22,0,0,0,45.43,14.57,21.964,21.964,0,0,1,54,32Z" style="fill:#006df0"/><circle cx="50" cy="14" r="11" style="fill:#00d7df"/><path d="M61,14a11,11,0,0,1-20.52,5.52A11.007,11.007,0,0,0,55.52,4.48,10.98,10.98,0,0,1,61,14Z" style="fill:#009698"/><path d="M8.207,50.275l1.585-1.219a27.99,27.99,0,0,1,.7-34.976v1.656h2V11.494a1,1,0,0,0-1-1H7.251v2H9.21a30,30,0,0,0-1,37.781Z"/><path d="M15.736,51.506H11.494a1,1,0,0,0-1,1v4.243h2V54.79a30,30,0,0,0,38.128.732l-1.243-1.567a27.988,27.988,0,0,1-35.3-.449h1.656Z"/><path d="M48,10H44v2h3v1H45a1,1,0,0,0-1,1v3a1,1,0,0,0,1,1h4V16H46V15h2a1,1,0,0,0,1-1V11A1,1,0,0,0,48,10Z"/><path d="M54,13H53V10H51v4a1,1,0,0,0,1,1h2v3h2V10H54Z"/><path d="M50,2a11.92,11.92,0,0,0-6.84,2.154A30,30,0,0,0,13.379,8.476l1.242,1.568a28.033,28.033,0,0,1,26.8-4.417A12,12,0,0,0,38.7,10.012,23.061,23.061,0,1,0,53.988,25.3a12,12,0,0,0,4.377-2.717,27.957,27.957,0,0,1-4.859,27.335V48.264h-2v4.242a1,1,0,0,0,1,1h4.243v-2H54.791a29.937,29.937,0,0,0,5.047-30.655A11.985,11.985,0,0,0,50,2ZM17.1,17.219a22.657,22.657,0,0,0,4.026,2.763A37.421,37.421,0,0,0,19.29,31H11.051A20.922,20.922,0,0,1,17.1,17.219ZM11.051,33h8.233A37.788,37.788,0,0,0,21.1,44.038a22.836,22.836,0,0,0-3.988,2.751A20.924,20.924,0,0,1,11.051,33ZM18.6,48.149a20.805,20.805,0,0,1,3.211-2.216,19.22,19.22,0,0,0,3.83,6.075A20.989,20.989,0,0,1,18.6,48.149ZM31,52.9c-2.931-.559-5.558-3.543-7.342-7.882A20.845,20.845,0,0,1,31,43.313Zm0-11.584a22.856,22.856,0,0,0-8.03,1.82A35.737,35.737,0,0,1,21.3,33H31ZM31,31H21.29a35.573,35.573,0,0,1,1.649-10.133A22.669,22.669,0,0,0,31,22.7Zm0-10.3a20.73,20.73,0,0,1-8.214-2.1,20.387,20.387,0,0,1-4.2-2.741A20.894,20.894,0,0,1,31,11.051Zm2-9.66a20.8,20.8,0,0,1,5.189.9A11.7,11.7,0,0,0,39.3,19.393,20.651,20.651,0,0,1,33,20.68Zm0,11.663a22.618,22.618,0,0,0,7.379-1.564,11.98,11.98,0,0,0,1.162,1.36A37.124,37.124,0,0,1,42.7,31H33ZM33,33h9.7A35.737,35.737,0,0,1,41.03,43.133,22.856,22.856,0,0,0,33,41.313Zm0,19.9V43.313a20.845,20.845,0,0,1,7.342,1.7C38.558,49.354,35.931,52.338,33,52.9Zm5.364-.889a19.22,19.22,0,0,0,3.83-6.075,20.805,20.805,0,0,1,3.211,2.216A20.989,20.989,0,0,1,38.364,52.008Zm8.527-5.219A22.836,22.836,0,0,0,42.9,44.038,37.788,37.788,0,0,0,44.716,33h8.233A20.924,20.924,0,0,1,46.891,46.789ZM44.7,31a39.959,39.959,0,0,0-.676-6.61,11.733,11.733,0,0,0,8.03,1.421A20.8,20.8,0,0,1,52.958,31ZM50,24A10,10,0,1,1,60,14,10.011,10.011,0,0,1,50,24Z"/></g></svg>
